PathFileType	4	(X/Y/Z)	 s03c0402.trc
DataRate	CameraRate	NumFrames	NumMarkers	Units	OrigDataRate	OrigDataStartFrame	OrigNumFrames
200	200	4	50	mm	200	1251	2000
Frame#	Time	racr			lacr			c7			jug			rlel			rdr			llel			ldr			s2			lic			ric			lasi			rasi			rpsi			lpsi			rgt			lgt			rth1			rth2			rth3			rth4			rlfc			rmfc			rsh1			rsh2			rsh3			rsh4			rlmal			rcal			rtoe			rmt5			rmt1			lth1			lth2			lth4			lth3			llfc			lmfc			lsh1			lsh2			lsh3			lsh4			llmal			lcal			ltoe			lmt1			lmt5			SBIKE			LBIKE			RBIKE			
		X1	Y1	Z1	X2	Y2	Z2	X3	Y3	Z3	X4	Y4	Z4	X5	Y5	Z5	X6	Y6	Z6	X7	Y7	Z7	X8	Y8	Z8	X9	Y9	Z9	X10	Y10	Z10	X11	Y11	Z11	X12	Y12	Z12	X13	Y13	Z13	X14	Y14	Z14	X15	Y15	Z15	X16	Y16	Z16	X17	Y17	Z17	X18	Y18	Z18	X19	Y19	Z19	X20	Y20	Z20	X21	Y21	Z21	X22	Y22	Z22	X23	Y23	Z23	X24	Y24	Z24	X25	Y25	Z25	X26	Y26	Z26	X27	Y27	Z27	X28	Y28	Z28	X29	Y29	Z29	X30	Y30	Z30	X31	Y31	Z31	X32	Y32	Z32	X33	Y33	Z33	X34	Y34	Z34	X35	Y35	Z35	X36	Y36	Z36	X37	Y37	Z37	X38	Y38	Z38	X39	Y39	Z39	X40	Y40	Z40	X41	Y41	Z41	X42	Y42	Z42	X43	Y43	Z43	X44	Y44	Z44	X45	Y45	Z45	X46	Y46	Z46	X47	Y47	Z47	X48	Y48	Z48	X49	Y49	Z49	X50	Y50	Z50	
1251	6.2550	827.751881	1360.768216	-66.039731	812.090568	1392.365403	-388.550781	780.345709	1470.456753	-213.985564	752.724990	1294.634946	-226.859167	631.302647	1203.053823	111.775197	740.696602	977.987134	14.415517	651.071993	1216.890421	-558.681823	736.715430	974.115888	-456.864665	205.195614	1295.807159	-229.731968	390.662180	1298.391306	-401.859835	367.016347	1283.124857	-35.232826	392.557110	1219.344920	-357.059135	381.954983	1210.772025	-81.329410	239.734074	1337.474128	-179.239844	249.733575	1340.072717	-265.076671	284.399732	1184.719838	-31.201871	329.422922	1201.696984	-425.852755	338.947531	1026.856886	-14.549634	397.020207	959.625664	-13.835981	417.319806	876.946663	-24.216359	429.840909	976.549303	-18.266002	458.825252	757.453965	-53.069623	474.720551	744.999007	-166.369686	395.071337	600.781199	-26.661743	386.972753	512.788935	-40.658188	334.912458	441.370462	-45.110319	416.879400	504.745836	-64.138380	276.936398	324.015260	-65.815264	207.889204	301.042718	-100.126166	501.597960	197.106229	-111.377608	384.424382	218.052383	-36.724489	412.418523	231.765046	-150.887276	413.131711	1077.518079	-450.825263	477.216008	1019.415660	-456.038333	505.701172	1036.332717	-441.483908	503.339213	934.325844	-463.524897	564.027461	820.483745	-455.853584	555.899208	796.698622	-330.562305	409.060883	735.528991	-475.128298	352.337401	674.994367	-453.538401	265.936255	648.390233	-445.111944	371.343498	649.131927	-431.931732	155.656265	590.699646	-422.109980	88.294169	619.908976	-373.793522	231.206342	347.884318	-349.569470	179.888527	430.151206	-313.165074	154.658400	433.713861	-430.300474	-215.890235	946.114244	-230.767400	-7.962745	84.384161	-436.696201	-13.847306	80.764041	-36.486162	
1252	6.2600	828.322844	1361.544308	-67.892931	811.207215	1393.396711	-390.864301	779.608265	1471.481146	-216.030157	753.120657	1295.175196	-229.099089	632.490815	1203.707022	110.817014	741.379087	977.555600	15.479858	650.651220	1216.522833	-560.213738	736.691396	974.104848	-457.161954	205.370360	1294.191812	-227.805254	389.464056	1297.459585	-400.251513	368.450760	1281.614817	-34.749797	392.631995	1219.068569	-356.071479	383.672448	1209.354329	-80.868513	240.052723	1335.754155	-177.756174	250.035340	1340.213361	-256.218725	283.996236	1181.866895	-30.670764	330.414465	1202.881857	-424.957821	335.824721	1023.577232	-14.386050	392.406348	955.077169	-13.751048	410.905973	872.009270	-24.572322	425.590486	971.285461	-17.989294	450.735477	752.239384	-53.656484	467.014583	738.655154	-166.032999	388.280204	595.414013	-27.083191	381.108321	507.220202	-40.648272	329.630425	435.348997	-44.818742	410.903686	499.551052	-64.382792	272.732297	317.368072	-66.220920	203.193827	297.651096	-98.392417	494.867675	186.549122	-111.752101	378.217097	209.422217	-37.089796	406.353984	223.178877	-150.993388	415.855884	1080.993083	-450.633815	480.991067	1023.900954	-455.866079	508.908217	1041.398221	-442.141218	508.564284	939.454228	-464.041344	570.179968	825.405738	-456.548648	561.195634	800.807788	-331.294763	414.860255	741.251123	-475.239631	357.475811	681.371871	-453.394262	270.833173	655.610266	-444.635655	376.103100	655.514101	-431.587095	159.721665	599.228260	-421.876686	91.131162	627.205723	-373.794142	239.576404	358.119797	-349.097177	186.308942	438.594435	-311.921080	161.632754	442.377337	-430.174452	-215.933131	946.104117	-230.791168	-7.957787	84.363586	-436.695614	-13.865290	80.776260	-36.583152	
1253	6.2650	828.877340	1362.358090	-69.788134	810.304789	1394.424395	-393.228015	778.938195	1472.300671	-218.235946	753.600588	1295.897040	-231.463470	633.648264	1204.435795	109.769104	742.194463	977.139624	16.568973	650.257180	1216.155530	-561.819301	736.693292	974.131932	-457.505223	205.429296	1292.942569	-226.286892	388.183834	1297.030902	-399.513842	370.199326	1280.152494	-34.612576	392.809494	1218.940587	-355.018688	385.643330	1208.199707	-80.401163	240.058232	1334.505006	-175.756694	248.551559	1339.413574	-258.823023	283.743883	1179.175358	-30.189223	331.141140	1204.193973	-424.001693	332.860256	1020.725374	-14.187101	387.964919	950.969084	-13.614751	404.586255	867.497805	-24.760613	421.438740	966.484295	-17.726351	442.601615	747.485076	-54.126575	459.521048	732.601837	-165.154520	381.274075	590.478981	-27.481288	374.949583	502.167139	-40.651488	324.128332	429.787403	-44.566097	404.787100	494.746767	-64.571851	267.882564	311.531980	-65.936729	198.052438	293.143136	-98.074682	487.634869	176.229452	-112.139425	371.531512	201.422890	-37.390761	399.809383	215.079694	-151.109125	418.559484	1084.643389	-450.541425	484.639983	1028.530577	-455.523197	512.395800	1045.949274	-439.144939	513.555411	944.627906	-464.373491	576.297532	830.363386	-457.050535	567.389438	805.393040	-331.347472	420.760683	746.615767	-474.740002	362.616484	687.677175	-453.167865	275.742785	662.817732	-444.333766	380.996242	661.807129	-431.074187	164.012850	607.334701	-421.518608	94.214712	633.942818	-373.463278	248.430510	368.119627	-348.852935	193.971085	447.242883	-311.880812	168.850837	450.797757	-429.927877	-215.974888	946.075411	-230.824218	-7.956613	84.360338	-436.705273	-13.915069	80.784640	-36.719011	
1254	6.2700	829.287132	1363.173333	-71.996127	809.426836	1395.320581	-395.557989	778.344620	1473.168594	-220.554758	753.611500	1296.543183	-233.566537	634.892941	1205.208807	108.664529	742.973133	976.758997	17.474542	649.893472	1215.794202	-563.549126	736.756490	974.005608	-457.548728	205.623895	1291.663374	-224.477016	386.842363	1296.783640	-398.893742	372.124685	1279.092884	-34.397582	393.006400	1219.112226	-354.316472	387.778881	1207.280851	-79.975609	240.392461	1333.189128	-173.878383	248.388912	1338.321678	-259.584378	283.830249	1176.709626	-29.586252	331.725211	1205.731449	-422.965928	330.132467	1018.333593	-13.876090	383.623430	947.341414	-13.459460	398.338398	863.633645	-24.531559	417.495461	962.090642	-17.486026	434.492402	743.101145	-54.564593	451.341696	727.261148	-165.128161	374.042228	586.004727	-27.698481	368.483954	497.583983	-40.587446	318.201685	424.721541	-44.376242	398.320637	490.300226	-64.681956	262.584534	306.288695	-65.638780	192.912138	289.723338	-97.686918	479.827278	167.080634	-111.747739	364.456097	194.087567	-37.480092	392.848895	207.452346	-151.280026	421.033620	1088.194055	-450.173926	488.044803	1033.095612	-455.196329	515.351629	1050.842959	-438.395759	518.189645	949.710741	-464.585242	582.205027	835.367923	-457.576328	573.596832	810.317265	-332.085953	426.633874	752.040975	-474.701490	367.942361	693.701694	-452.818954	280.834518	669.664060	-443.910098	386.050069	667.820506	-430.440392	168.662299	614.915064	-421.112117	97.745472	640.006857	-373.108615	257.650753	377.469491	-348.483768	200.909357	455.095557	-311.775511	176.591226	458.702612	-429.673186	-216.029946	946.037397	-230.864031	-7.949776	84.330695	-436.699447	-13.880813	80.804239	-36.705904	
